<svg width="380" height="265" viewbox = "0 0 380 265"  xmlns="http://www.w3.org/2000/svg">

<!--
<json>
{
    "svgwidth": 380,
    "svgheight": 265,
    "unit": 100,
    "x0": 683,
    "y0": 449,
    "x0rel": -1,
    "y0rel": 50,
    "glyph": "0336,0336,0336,0330,0330,0330,0330,0330,0337,0337,0230,",
    "table": [
        "0220:0321,0200,0336,0330,0332,0204,0336,0331,0333,0337,0326,0204,0321,0200,0336,0333,0331,0337,0322,0204,0321,0200,0337,0200,0320,",
        "0221:0336,0336,0334,0362,0203,0335,0203,0203,0334,0203,0335,0350,0310,0335,0337,0203,0203,0335,0335,0203,0203,0335,0335,0335,0336,0203,0304,0313,0334,0203,0203,0335,0203,0363,0335,0337,0337,0330,",
        "0222:0333,0220,0332,0332,0336,0330,0335,0330,0336,0331,0337,0221,0334,0331,0332,0332,0336,0333,0330,0337,0322,0204,0321,0200,0333,0330,0330,0330,0335,0335,0332,0332,0221,0335,0335,0330,0336,0333,0330,0337,0326,0204,0321,0200,0331,0331,0331,0331,0331,0336,0330,0333,0333,0337,0337,0362,0203,0203,0203,0334,0203,0203,0203,0334,0203,0203,0203,0334,0203,0203,0203,0354,0334,0320,0332,0336,0336,0330,0332,0337,0337,",
        "0223:0333,0331,0321,0331,0333,0337,0337,0200,0336,0330,0336,0332,0336,0331,0332,0337,0322,0204,0321,0200,0336,0330,0330,0332,0336,0330,0337,0221,0331,0331,0331,0335,0335,0330,0221,0335,0333,0333,0336,0333,0337,0330,0336,0330,0337,0221,0335,0335,0330,0330,0330,0330,0221,0334,0331,0331,0331,0320,0330,0332,0332,0330,0330,0332,0336,0333,0337,0337,",
        "0224:0220,0330,0335,0335,0336,0333,0331,0334,0331,0336,0330,0332,0337,0241,0333,0333,0333,0333,0241,0335,0335,0335,0333,0333,0333,0331,0321,0336,0332,0331,0337,0362,0203,0203,0203,0203,0203,0203,0334,0203,0203,0203,0203,0334,0203,0203,0203,0203,0203,0203,0334,0203,0203,0203,0203,0354,0334,",
        "0225:0321,0337,0200,0336,0336,0332,0332,0332,0332,0243,0243,0330,0332,0332,0332,0332,0336,0330,0337,0242,0330,0332,0332,0332,0336,0336,0330,0337,0337,0220,0333,0333,0331,0331,0331,0336,0330,0333,0336,0331,0337,0337,0337,",
        "0226:0336,0336,0332,0332,0332,0337,0337,0321,0362,0203,0335,0203,0336,0203,0335,0203,0203,0335,0203,0203,0203,0354,0335,0333,0333,0336,0332,0337,0330,0336,0341,0330,0332,0332,0336,0341,0333,0333,0333,0333,0330,0330,0332,0332,0350,0310,0335,0337,0362,0203,0335,0336,0203,0203,0335,0337,0203,0364,0336,0335,0313,0304,0335,0335,0337,0337,0331,0332,0332,0331,0337,0336,0336,0333,0333,0333,0337,0337,0320,0335,0335,0336,0336,0330,0337,0221,0335,0335,0330,0330,0336,0331,0337,0337,",
        "0227:0321,0201,0335,0336,0342,0335,0335,0342,0331,0350,0310,0334,0337,0362,0203,0335,0335,0203,0364,0335,0304,0336,0333,0331,0313,0211,0211,0211,0211,0211,0350,0334,0350,0334,0343,0335,0335,0335,0343,0335,0335,0335,0343,0211,0211,0343,0334,0334,0334,0343,0334,0334,0334,0343,0335,0335,0335,0211,0211,0343,0335,0335,0335,0343,0335,0335,0335,0335,0335,0335,0335,0335,0335,0335,0343,0335,0335,0335,0210,0210,0210,0210,0210,0210,0210,0210,0210,0313,0304,0331,0320,0337,",
        "0230:0331,0331,0227,0330,0330,0330,0331,0336,0330,0330,0226,0331,0331,0330,0331,0331,0331,0331,0350,0334,0350,0334,0304,0330,0330,0330,0330,0330,0226,0331,0331,0331,0331,0331,0335,0350,0335,0304,0330,0330,0330,0330,0330,0226,0331,0331,0331,0331,0331,0350,0334,0350,0334,0304,0331,0331,0321,0333,0333,0333,0333,0333,0336,0333,0337,0333,0362,0203,0203,0203,0203,0203,0203,0203,0203,0203,0334,0203,0203,0203,0203,0203,0203,0203,0203,0203,0203,0203,0203,0203,0334,0203,0203,0203,0203,0203,0203,0203,0203,0203,0334,0203,0203,0203,0203,0203,0203,0203,0203,0203,0203,0203,0203,0203,0354,0335,0335,0335,",
        "0241:0306,0362,0203,0335,0335,0203,0335,0335,0203,0363,0335,0335,0304,0313,",
        "0242:0241,0333,0336,0333,0337,0241,0336,0333,0337,0333,0241,0333,0336,0333,0337,",
        "0243:0313,0304,0320,0350,0310,0335,0337,0362,0203,0335,0336,0203,0335,0335,0335,0337,0203,0335,0336,0203,0363,0335,0335,0324,0362,0203,0335,0335,0203,0335,0335,0335,0337,0203,0363,0335,0336,0331,0335,0335,0335,0337,0362,0203,0335,0335,0335,0336,0203,0335,0335,0203,0363,0320,0331,0335,0335,0304,0313,",
        "0244:0243,0243,0243,0243,",
        "0245:0321,0337,0201,0320,0336,0334,0336,0336,0306,0336,0362,0203,0335,0335,0337,0203,0335,0335,0203,0335,0335,0336,0203,0363,0304,0335,0337,0337,0337,0337,0331,0336,",
        "0246:0320,0335,0306,0350,0334,0330,0321,0337,0366,0336,0331,0335,0335,0330,0337,0336,0336,0336,0336,0336,0330,0337,0337,0337,0337,0337,0367,0336,0336,0336,0336,0336,0331,0335,0337,0320,0337,0362,0203,0334,0334,0334,0334,0203,0334,0334,0334,0334,0203,0363,0335,0337,0337,0330,0335,0335,0304,",
        "0247:0336,0336,0336,0347,0337,0337,0337,",
        "0250:0335,0337,0331,0337,0223,",
        "01220:0333,0220,",
        "01221:0333,0200,0336,0330,0332,0335,0331,0337,0221,0334,0336,0331,0337,",
        "01222:0333,0200,0336,0336,0330,0332,0332,0222,0333,0331,0333,0337,0337,",
        "01223:0333,0200,0336,0336,0330,0332,0330,0332,0223,0333,0333,0331,0331,0337,0337,",
        "01224:0333,0200,0336,0336,0330,0332,0330,0337,0224,0337,0337,",
        "01225:0225,0333,0200,",
        "01226:0333,0200,0336,0330,0332,0226,0333,0331,0337,",
        "01227:0333,0200,0336,0330,0332,0210,0227,0211,0331,0333,0337,",
        "01230:0333,0200,0336,0330,0332,0230,0331,0304,0333,0337,",
        "01231:0333,0200,0332,0336,0330,0333,0231,0333,0331,0337,",
        "01232:0333,0200,0336,0332,0330,0332,0232,0333,0331,0333,0337,",
        "01233:0333,0200,0336,0332,0337,0336,0332,0336,0336,0333,0330,0337,0337,0210,0210,0233,0211,0211,0313,0336,0336,0332,0332,0333,0331,0337,0337,0337,0333,",
        "01234:0333,0200,0336,0234,0337,",
        "01235:0333,0200,0336,0332,0336,0330,0332,0235,0333,0333,0333,0336,0336,0331,0331,0331,0331,0337,0337,0337,0337,",
        "01236:0333,0200,0336,0330,0330,0332,0336,0331,0337,0236,0333,0331,0331,0336,0330,0337,0337,",
        "01237:0333,0200,0336,0330,0332,0237,0333,0331,0337,",
        "01240:0333,0200,0336,0336,0332,0332,0240,0333,0333,0337,0337,",
        "01241:0333,0200,0336,0332,0241,0333,0337,",
        "01242:0333,0200,0336,0332,0332,0336,0330,0330,0242,0336,0331,0331,0331,0331,0332,0337,0337,0337,",
        "01243:0333,0200,0336,0332,0332,0243,0337,",
        "01244:0333,0200,0332,0336,0330,0336,0336,0243,0243,0243,0243,0331,0331,0331,0331,0337,0337,0337,",
        "01245:0333,0200,0336,0332,0336,0331,0337,0245,0333,0336,0330,0337,0337,",
        "01246:0333,0200,0330,0332,0336,0331,0336,0332,0337,0246,0333,0333,0336,0333,0331,0331,0337,0337,",
        "01247:0333,0200,0336,0330,0332,0337,0247,0336,0333,0331,0337,"
    ]
}
</json>
-->
    <line x1="189" y1="220" x2="189" y2="170" style="stroke:black;stroke-width:4" />
    <line x1="189" y1="170" x2="214" y2="170" style="stroke:black;stroke-width:4" />
    <line x1="189" y1="170" x2="164" y2="170" style="stroke:black;stroke-width:4" />
	<path d = "M214 170 L189 195 L164 170 " stroke = "black" stroke-width = "4" fill = "none" />  <path d="M139.98791017664698 195           A49.01208982335302 49.01208982335302 0 0 1 154.34321892578288 160.3432189257829" fill = "none" stroke = "black" stroke-width = "4" />
  <path d="M170.24388523901314 149.71873336659942           A49.01208982335302 49.01208982335302 0 0 1 207.75611476098683 149.71873336659942" fill = "none" stroke = "black" stroke-width = "4" />
  <path d="M223.65678107421712 160.34321892578294           A49.01208982335302 49.01208982335302 0 0 1 238.01208982335302 195.00000000000009" fill = "none" stroke = "black" stroke-width = "4" />
  <path d="M234.36631539648226 149.63368460351782           A64.1576585086005 64.1576585086005 0 0 1 253.1576585086005 195.00000000000009" fill = "none" stroke = "black" stroke-width = "4" />
  <path d="M164.4479270294214 135.7260524500554           A64.1576585086005 64.1576585086005 0 0 1 213.55207297057856 135.7260524500554" fill = "none" stroke = "black" stroke-width = "4" />
  <path d="M124.8423414913995 195.00000000000003           A64.1576585086005 64.1576585086005 0 0 1 143.63368460351776 149.6336846035178" fill = "none" stroke = "black" stroke-width = "4" />
  <path d="M156.86091923437883 117.40939533343325           A83.9834653070625 83.9834653070625 0 0 1 221.13908076562115 117.40939533343324" fill = "none" stroke = "black" stroke-width = "4" />
  <path d="M248.3852778261691 135.61472217383098           A83.9834653070625 83.9834653070625 0 0 1 272.9834653070625 195.00000000000014" fill = "none" stroke = "black" stroke-width = "4" />
  <path d="M105.0165346929375 194.99999999999957           A83.9834653070625 83.9834653070625 0 0 1 129.6147221738313 135.61472217383061" fill = "none" stroke = "black" stroke-width = "4" />
	<path d = "M170 70 L170 45 L195 45 L208 45 L208 58 L208 70 L195 70 L183 70 L170 70 Z" stroke = "black" stroke-width = "4" fill = "none" />    <circle cx="189" cy = "58" r = "6.25" stroke = "black" stroke-width = "4" fill = "none" />
    <circle cx="177" cy = "51" r = "3.125" stroke = "black" stroke-width = "4" fill = "none" />
	<path d = "M183 45 L186 42 L189 42 L192 42 L195 45 " stroke = "black" stroke-width = "4" fill = "none" />	<path d = "M189 76 L192 76 L192 79 L192 83 L195 83 L192 86 L189 89 L186 86 L183 82 L186 83 L186 79 L186 76 L189 76 Z" stroke = "black" stroke-width = "1" fill = "black" />	<path d = "M66 164 L43 155 L53 132 L58 120 L69 125 L81 130 L76 141 L71 153 L66 164 Z" stroke = "black" stroke-width = "4" fill = "none" />    <circle cx="62" cy = "142" r = "6.25" stroke = "black" stroke-width = "4" fill = "none" />
    <circle cx="51" cy = "152" r = "3.125" stroke = "black" stroke-width = "4" fill = "none" />
	<path d = "M48 143 L46 139 L48 136 L49 134 L53 132 " stroke = "black" stroke-width = "4" fill = "none" />	<path d = "M79 150 L80 147 L83 148 L86 149 L87 146 L89 150 L91 154 L87 156 L83 158 L84 155 L81 154 L78 152 L79 150 Z" stroke = "black" stroke-width = "1" fill = "black" />	<path d = "M297 130 L320 120 L330 143 L335 155 L323 160 L312 164 L307 153 L302 141 L297 130 Z" stroke = "black" stroke-width = "4" fill = "none" />    <circle cx="316" cy = "142" r = "6.25" stroke = "black" stroke-width = "4" fill = "none" />
    <circle cx="317" cy = "128" r = "3.125" stroke = "black" stroke-width = "4" fill = "none" />
	<path d = "M325 132 L329 134 L330 136 L332 139 L330 143 " stroke = "black" stroke-width = "4" fill = "none" />	<path d = "M299 150 L300 152 L297 154 L294 155 L295 158 L291 156 L287 154 L289 150 L291 146 L292 149 L295 148 L298 147 L299 150 Z" stroke = "black" stroke-width = "1" fill = "black" />	<path d = "M352 245 L352 220 L352 195 L352 170 L351 145 L351 120 L351 95 L351 70 L351 45 L351 20 L326 20 L301 20 L276 20 L251 20 L226 20 L201 20 L176 20 L151 20 L126 20 L101 20 L76 20 L51 20 L26 20 L26 45 L26 70 L26 95 L26 120 L26 145 L26 170 L27 195 L27 220 L27 245 L52 245 L77 245 L102 245 L127 245 L152 245 L177 245 L202 245 L227 245 L252 245 L277 245 L302 245 L327 245 L352 245 Z" stroke = "black" stroke-width = "4" fill = "none" /></svg>